Coordinates
version=1
nRows=18
nColumns=22
inDegrees=yes

Units are S.I. units (second, meters, Newtons, ...)
If the header above contains a line with 'inDegrees', this indicates whether rotational values are in degrees (yes) or radians (no).

endheader
time	pelvis_tilt	pelvis_list	pelvis_rotation	pelvis_tx	pelvis_ty	pelvis_tz	hip_flexion_r	hip_adduction_r	hip_rotation_r	knee_angle_r	ankle_angle_r	subtalar_angle_r	hip_flexion_l	hip_adduction_l	hip_rotation_l	knee_angle_l	ankle_angle_l	subtalar_angle_l	lumbar_extension	lumbar_bending	lumbar_rotation
      2.74000000	     -0.60013515	      1.69565554	     19.46074619	      0.10110705	      1.06818348	      1.01298124	     23.27759159	     -2.84526627	      5.11895546	    -20.26857169	      9.02875622	      5.30817334	     -6.81580370	     10.02325532	     10.01106229	     -9.61916523	     14.80370900	     -4.76446778	     -6.21876674	     -4.34471962	     -7.61561193
      2.75000000	     -0.54210116	      1.38535813	     19.87038091	      0.10875296	      1.06703245	      1.01019063	     23.09485543	     -2.32540912	      5.24099896	    -18.34249823	      8.72889812	      5.51585336	     -6.98847536	      9.69717999	     10.18598762	    -10.14952238	     15.16988178	     -5.17784292	     -6.16111976	     -4.03234297	     -7.55316567
      2.76000000	     -0.45979657	      1.09709204	     20.27021393	      0.11653827	      1.06587215	      1.00739113	     22.85277713	     -1.80871161	      5.51940755	    -16.53474186	      8.47542872	      5.80140597	     -7.20142919	      9.37907702	     10.42331247	    -10.67921574	     15.53122108	     -5.55102777	     -6.12283024	     -3.74017541	     -7.48398821
      2.77000000	     -0.37277549	      0.82477120	     20.66538293	      0.12446350	      1.06468075	      1.00454797	     22.58090499	     -1.30673411	      5.91953430	    -14.87960699	      8.31180753	      6.14858889	     -7.41683609	      9.06809646	     10.64655833	    -11.23683894	     15.90136006	     -5.81345510	     -6.07818388	     -3.46208504	     -7.43374140
      2.78000000	     -0.27195025	      0.57349282	     21.04554531	      0.13254146	      1.06350199	      1.00166810	     22.27639987	     -0.82121147	      6.43027105	    -13.40965722	      8.20594655	      6.55876161	     -7.66804373	      8.76390704	     10.88661445	    -11.78075169	     16.25808188	     -5.98026083	     -6.03541115	     -3.20116820	     -7.38109447
      2.79000000	     -0.16379394	      0.33489469	     21.41332943	      0.14077859	      1.06234276	      0.99874546	     21.95799244	     -0.34883132	      7.02643139	    -12.16148069	      8.13065372	      6.98124063	     -7.94174172	      8.45982193	     11.13197323	    -12.32037031	     16.58752974	     -6.04696378	     -5.98334984	     -2.95060640	     -7.32420001
      2.80000000	     -0.05354273	      0.10741851	     21.76575922	      0.14921422	      1.06122398	      0.99576064	     21.62603839	      0.10797308	      7.66994555	    -11.14106537	      8.04753847	      7.37307723	     -8.24205940	      8.15469542	     11.36596631	    -12.83635596	     16.88502124	     -6.03001511	     -5.90785549	     -2.71002293	     -7.27361377
      2.81000000	      0.07551816	     -0.09811297	     22.10841639	      0.15782719	      1.06020222	      0.99270335	     21.26910903	      0.54395823	      8.33451343	    -10.37489855	      7.88873426	      7.72426464	     -8.59513082	      7.85395736	     11.62147102	    -13.31795363	     17.15442918	     -5.92781736	     -5.83598088	     -2.48286416	     -7.22420426
      2.82000000	      0.20045379	     -0.32469581	     22.44860936	      0.16661322	      1.05924022	      0.98956951	     20.93477172	      0.99277538	      8.99179968	     -9.88318875	      7.59423437	      7.92490167	     -8.93333970	      7.52590061	     11.84979745	    -13.81354046	     17.38518769	     -5.77708810	     -5.72462532	     -2.23038633	     -7.18796317
      2.83000000	      0.31863824	     -0.57391438	     22.79253888	      0.17555569	      1.05835799	      0.98634700	     20.62985476	      1.45336396	      9.60963675	     -9.66203265	      7.12919680	      7.96954183	     -9.24476225	      7.17275514	     12.05396215	    -14.33564146	     17.56769024	     -5.60190862	     -5.57156619	     -1.95271088	     -7.16758557
      2.84000000	      0.46987922	     -0.82330361	     23.14843091	      0.18461850	      1.05764942	      0.98300153	     20.31201239	      1.91766372	     10.18014783	     -9.70291578	      6.45649024	      7.83228564	     -9.57969099	      6.80328159	     12.26303767	    -14.87766945	     17.70312019	     -5.32002185	     -5.43815095	     -1.65049247	     -7.16491038
      2.85000000	      0.58963191	     -1.13235329	     23.51802048	      0.19378017	      1.05700515	      0.97955319	     20.08928841	      2.41821205	     10.66052719	    -10.00817860	      5.60861110	      7.61841058	     -9.81085099	      6.39049181	     12.42116425	    -15.50546118	     17.76620154	     -5.12031119	     -5.22755288	     -1.29082357	     -7.19464873
      2.86000000	      0.76320347	     -1.42218438	     23.90568572	      0.20301072	      1.05661979	      0.97598375	     19.83731732	      2.91273418	     11.04778681	    -10.51861015	      4.62219148	      7.07241045	    -10.06546428	      5.97424746	     12.56060975	    -16.19221516	     17.76832945	     -4.70630263	     -5.07759153	     -0.91855702	     -7.25830944
      2.87000000	      0.92329550	     -1.75636247	     24.31940443	      0.21228374	      1.05638107	      0.97225734	     19.65279701	      3.42323452	     11.31774160	    -11.19641240	      3.64329123	      6.49923669	    -10.22320911	      5.52792855	     12.67405464	    -16.98550356	     17.65341143	     -4.31850669	     -4.88211962	     -0.49125200	     -7.36350328
      2.88000000	      1.09907617	     -2.10775935	     24.75584732	      0.22156782	      1.05636119	      0.96837752	     19.49845670	      3.93193089	     11.43337698	    -11.99707742	      2.77666031	      5.90190320	    -10.31327886	      5.06810320	     12.75829658	    -17.89809587	     17.43468206	     -3.88435976	     -4.69137079	     -0.02666865	     -7.49521364
      2.89000000	      1.28989931	     -2.45897264	     25.21342447	      0.23084902	      1.05657775	      0.96433867	     19.36135074	      4.41683022	     11.39021862	    -12.87577842	      2.11868014	      5.32143328	    -10.33819306	      4.60970785	     12.80988883	    -18.92833528	     17.07505435	     -3.35659076	     -4.51238646	      0.45652614	     -7.66107391
      2.90000000	      1.49318030	     -2.80304543	     25.69350192	      0.24011927	      1.05702680	      0.96012349	     19.21964875	      4.86437427	     11.21428896	    -13.77392832	      1.72137165	      4.82351161	    -10.29599674	      4.15998428	     12.84259767	    -20.07692395	     16.56237255	     -2.71942710	     -4.34525372	      0.95020750	     -7.84844995
      2.91000000	      1.70432702	     -3.12204418	     26.18857188	      0.24937506	      1.05769636	      0.95575947	     19.05788331	      5.26139631	     10.93789565	    -14.66212567	      1.57823911	      4.40217019	    -10.19490599	      3.73449969	     12.86303540	    -21.32740573	     15.88503771	     -1.92572718	     -4.19297617	      1.42937323	     -8.04782553
